<?xml version="1.0" standalone="no"?>
<!DOCTYPE svg PUBLIC "-//W3C//DTD SVG 1.1//EN" "http://www.w3.org/Graphics/SVG/1.1/DTD/svg11.dtd" >
<svg>
<metadata>
Created by FontForge 20120731 at Mon Nov 17 06:44:49 2014
 By Orthosie Webhosting
Copyright 1988-1991 Adobe Systems Inc.
</metadata>
<defs>
<font id="HelveticaLTExtraCompressedRegular" horiz-adv-x="758" >
  <font-face 
    font-family="HelveticaLTExtraCompressedRegular"
    font-weight="400"
    font-stretch="normal"
    units-per-em="2048"
    panose-1="2 11 5 0 0 0 0 0 0 0"
    ascent="1638"
    descent="-410"
    x-height="1171"
    cap-height="1458"
    bbox="-252 -512 2048 1957"
    underline-thickness="102"
    underline-position="-154"
    unicode-range="U+0020-2122"
  />
<missing-glyph horiz-adv-x="1024" 
d="M102 0h820v1049h-820v-1049zM119 16v1016h786v-1016h-786z" />
    <glyph glyph-name=".notdef" horiz-adv-x="1024" 
d="M102 0h820v1049h-820v-1049zM119 16v1016h786v-1016h-786z" />
    <glyph glyph-name=".null" horiz-adv-x="0" 
 />
    <glyph glyph-name="nonmarkingreturn" horiz-adv-x="379" 
 />
    <glyph glyph-name="space" unicode=" " horiz-adv-x="379" 
 />
    <glyph glyph-name="exclam" unicode="!" horiz-adv-x="530" 
d="M395 375v1083h-260v-1083h260zM395 0v303h-260v-303h260z" />
    <glyph glyph-name="quotedbl" unicode="&#x22;" horiz-adv-x="682" 
d="M405 903h246v555h-246v-555zM31 903h245v555h-245v-555z" />
    <glyph glyph-name="numbersign" unicode="#" 
d="M469 852l-29 -299h-127l29 299h127zM356 995l43 463h-141l-43 -463h-129l-8 -143h123l-29 -299h-139l-8 -143h133l-39 -410h141l39 410h127l-39 -410h141l39 410h117l8 143h-110l28 299h115l8 143h-108l43 463h-142l-43 -463h-127z" />
    <glyph glyph-name="dollar" unicode="$" 
d="M461 1593h-133v-106q-121 0 -205 -64q-86 -67 -88 -202v-183q0 -61 18 -106q17 -49 45 -86q29 -37 64 -68q35 -33 71 -67q41 -31 78 -68q35 -39 64 -88q28 -47 45 -115q16 -67 16 -155q0 -33 -6 -62q-12 -35 -45 -35t-41 35q-10 29 -10 62v288h-289v-335q2 -129 84 -199
q82 -68 199 -68v-106h133v106q112 0 188 72q74 68 76 195v127q0 100 -16 174q-17 71 -45 122q-27 52 -62 91q-37 36 -74 67q-37 33 -71 66q-35 30 -66 69q-61 74 -67 219q0 33 10 66q8 29 41 31q33 -2 45 -31q6 -33 6 -66v-235h289v283q-2 122 -74 194q-70 70 -180 72v106z
" />
    <glyph glyph-name="percent" unicode="%" horiz-adv-x="1100" 
d="M238 -29h122l504 1516h-119zM807 627q-2 47 35 49q34 -2 34 -49v-447q0 -49 -34 -49q-37 0 -35 49v447zM623 240q-3 -240 219 -240q221 0 219 240v327q2 238 -219 240q-222 -2 -219 -240v-327zM39 891q-2 -240 219 -240t219 240v327q2 238 -219 240q-221 -2 -219 -240
v-327zM223 1278q-2 47 35 49q35 -2 35 -49v-447q0 -49 -35 -49q-37 0 -35 49v447z" />
    <glyph glyph-name="ampersand" unicode="&#x26;" horiz-adv-x="872" 
d="M524 238q-43 -50 -106 -50q-53 0 -78 43q-23 39 -23 101v280h5zM338 1214q2 54 51 56q49 -2 51 -56v-143q0 -53 -20 -78q-23 -26 -53 -31q-29 39 -29 84v168zM577 801v-211h-4l-114 209q141 69 192 129q51 57 51 190v41q2 158 -61 244q-70 84 -264 84q-174 0 -240 -84
q-63 -86 -61 -244v-41q2 -76 20 -135q21 -64 80 -129q-94 -41 -123 -117q-14 -37 -18 -80q-6 -45 -6 -94v-260q2 -170 104 -250q100 -82 266 -82q66 0 138 19q34 10 65 22q31 13 55 31v0q39 -45 99 -43h112v231h-39q-36 -2 -36 37q0 47 10 125q8 74 8 209v199h-234z" />
    <glyph glyph-name="quotesingle" unicode="'" horiz-adv-x="455" 
d="M104 903h246v555h-246v-555z" />
    <glyph glyph-name="parenleft" unicode="(" horiz-adv-x="606" 
d="M317 1487q-254 -395 -264 -854q6 -443 246 -825h229q-215 384 -211 823q2 456 236 856h-236z" />
    <glyph glyph-name="parenright" unicode=")" horiz-adv-x="606" 
d="M289 -192q252 395 264 853q-8 445 -246 826h-229q213 -383 211 -823q-2 -457 -236 -856h236z" />
    <glyph glyph-name="asterisk" unicode="*" 
d="M291 1253l-189 68v0l-57 -166l195 -59l-142 -181l148 -98v0l133 184v0l139 -184v0l135 98l-143 183l201 59l-60 170v0l-188 -76v0v207h-172v-205v0z" />
    <glyph glyph-name="plus" unicode="+" horiz-adv-x="1139" 
d="M451 704h-383v-237h383v-385h237v385h383v237h-383v385h-237v-385z" />
    <glyph glyph-name="comma" unicode="," horiz-adv-x="379" 
d="M18 -258h166l174 561h-266z" />
    <glyph glyph-name="hyphenminus" unicode="-" horiz-adv-x="530" 
d="M442 541v188h-354v-188h354z" />
    <glyph glyph-name="period" unicode="." horiz-adv-x="379" 
d="M319 0v303h-260v-303h260z" />
    <glyph glyph-name="slash" unicode="/" horiz-adv-x="418" 
d="M-10 -29h159l281 1516h-166z" />
    <glyph glyph-name="zero" unicode="0" 
d="M39 238q2 -142 104 -205q101 -62 236 -62q139 0 239 62q99 63 101 205v983q-2 145 -101 208q-100 58 -239 58q-135 0 -236 -58q-102 -63 -104 -208v-983zM430 285q0 -33 -6 -62q-12 -35 -45 -35t-41 35q-10 29 -10 62v888q0 33 10 66q8 29 41 31q33 -2 45 -31
q6 -33 6 -66v-888z" />
    <glyph glyph-name="one" unicode="1" 
d="M244 0h288v1458h-229q-43 -164 -223 -164v-176h164v-1118z" />
    <glyph glyph-name="two" unicode="2" 
d="M719 217h-391q2 96 61 197q59 102 135 215q78 116 135 247q58 129 60 283v62q-2 145 -101 208q-100 58 -239 58q-135 0 -236 -58q-102 -63 -104 -208v-283h289v235q0 33 10 66q8 29 41 31q33 -2 45 -31q6 -33 6 -66q-2 -143 -59 -260q-58 -118 -135 -221
q-76 -100 -136 -194q-59 -97 -61 -197v-301h680v217z" />
    <glyph glyph-name="three" unicode="3" 
d="M246 647h57q78 0 105 -18q22 -23 22 -90v-254q0 -33 -6 -62q-12 -35 -45 -35t-41 35q-10 29 -10 62v288h-289v-335q2 -142 104 -205q101 -62 236 -62q139 0 239 62q99 63 101 205v233q2 117 -37 195q-41 75 -162 92v10q121 20 162 96q39 76 37 191v166q-2 145 -101 208
q-100 58 -239 58q-135 0 -236 -58q-102 -63 -104 -208v-283h289v235q0 33 10 66q8 29 41 31q33 -2 45 -31q6 -33 6 -66v-200q0 -66 -22 -86q-27 -23 -105 -23h-57v-217z" />
    <glyph glyph-name="four" unicode="4" 
d="M-6 365h391v-365h279v365h92v204h-92v889h-402l-268 -889v-204zM381 1264h4v-695h-166z" />
    <glyph glyph-name="five" unicode="5" 
d="M39 577v-339q2 -142 104 -205q101 -62 236 -62q139 0 239 62q99 63 101 205v536q4 258 -219 260q-54 0 -97 -16q-47 -19 -71 -56h-4v279h383v217h-672v-733h289q0 27 8 45q8 16 43 18q35 -2 45 -18q6 -18 6 -45v-440q0 -33 -6 -62q-12 -35 -45 -35t-41 35q-10 29 -10 62
v292h-289z" />
    <glyph glyph-name="six" unicode="6" 
d="M719 942v279q-2 145 -101 208q-100 58 -239 58q-135 0 -236 -58q-102 -63 -104 -208v-983q2 -142 104 -205q101 -62 236 -62q139 0 239 62q99 63 101 205v364q0 121 -47 197q-54 73 -187 75q-90 0 -157 -57v0v356q0 33 10 66q8 29 41 31q33 -2 45 -31q6 -33 6 -66v-231
h289zM328 524q0 33 10 66q8 28 41 30q33 -2 45 -30q6 -33 6 -66v-239q0 -33 -6 -62q-12 -35 -45 -35t-41 35q-10 29 -10 62v239z" />
    <glyph glyph-name="seven" unicode="7" 
d="M18 1241h437l-375 -1241h311l359 1241v217h-732v-217z" />
    <glyph glyph-name="eight" unicode="8" 
d="M430 981q0 -33 -6 -62q-12 -34 -45 -34t-41 34q-10 29 -10 62v192q0 33 10 66q8 29 41 31q33 -2 45 -31q6 -33 6 -66v-192zM39 1028q0 -102 41 -172q41 -68 147 -90v-4q-100 -2 -143 -80q-45 -76 -45 -170v-274q2 -142 104 -205q101 -62 236 -62q139 0 239 62
q99 63 101 205v274q2 90 -37 168q-23 37 -59 59q-39 23 -99 23v4q109 22 154 90q41 70 41 172v193q-2 145 -101 208q-100 58 -239 58q-135 0 -236 -58q-102 -63 -104 -208v-193zM328 547q0 33 10 65q8 29 41 31q33 -2 45 -31q6 -32 6 -65v-262q0 -33 -6 -62q-12 -35 -45 -35
t-41 35q-10 29 -10 62v262z" />
    <glyph glyph-name="nine" unicode="9" 
d="M39 516v-278q2 -142 104 -205q101 -62 236 -62q139 0 239 62q99 63 101 205v983q-2 145 -101 208q-100 58 -239 58q-135 0 -236 -58q-102 -63 -104 -208v-365q-2 -119 51 -192q49 -78 182 -80q93 -2 158 57v0v-356q0 -33 -6 -62q-12 -35 -45 -35t-41 35q-10 29 -10 62
v231h-289zM430 934q0 -33 -6 -62q-12 -34 -45 -34t-41 34q-10 29 -10 62v239q0 33 10 66q8 29 41 31q33 -2 45 -31q6 -33 6 -66v-239z" />
    <glyph glyph-name="colon" unicode=":" horiz-adv-x="379" 
d="M319 0v303h-260v-303h260zM319 868v303h-260v-303h260z" />
    <glyph glyph-name="semicolon" unicode=";" horiz-adv-x="379" 
d="M18 -258h166l174 561h-266zM338 868v303h-260v-303h260z" />
    <glyph glyph-name="less" unicode="&#x3c;" horiz-adv-x="1139" 
d="M1018 127v201l-621 258l621 258v200v0l-895 -376v-164l895 -377v0z" />
    <glyph glyph-name="equal" unicode="=" horiz-adv-x="1139" 
d="M1071 942h-1003v-238h1003v238zM1071 467h-1003v-238h1003v238z" />
    <glyph glyph-name="greater" unicode="&#x3e;" horiz-adv-x="1139" 
d="M121 328v-201v0l895 377v164l-895 376v0v-200l620 -258z" />
    <glyph glyph-name="question" unicode="?" horiz-adv-x="872" 
d="M389 932v270q-2 33 6 59q8 27 41 29q35 -2 43 -29q4 -26 4 -59v-67q-2 -84 -24 -140q-27 -55 -60 -100q-30 -41 -57 -88q-29 -47 -29 -121v-311h260v227q0 88 29 131q27 43 57 78q33 37 60 100q22 62 24 183v108q0 150 -75 215q-78 66 -213 70q-146 0 -234 -64
q-90 -65 -92 -219v-272h260zM573 0v303h-260v-303h260z" />
    <glyph glyph-name="at" unicode="@" horiz-adv-x="1638" 
d="M790 516q-73 0 -110 49q-41 47 -41 119q0 84 57 145q54 62 142 64q75 0 118 -45q41 -43 41 -119q0 -88 -53 -149q-57 -64 -154 -64v0zM1057 995v0q-95 121 -250 119q-187 -4 -297 -141q-113 -135 -113 -324q2 -151 105 -254q96 -108 233 -110q53 0 107 32q51 29 88 70
l4 -4q4 -47 35 -72q28 -26 71 -26q45 0 131 28q86 27 174 92q93 68 156 183q62 112 64 284q-7 287 -220 449q-210 164 -491 166q-330 -4 -551 -215q-225 -213 -229 -545q4 -338 235 -543q223 -209 557 -213q381 2 600 308h-198q-152 -117 -385 -119q-263 0 -420 151
q-164 148 -166 416q0 256 149 414q148 155 402 157q237 0 385 -123q147 -122 149 -368q0 -80 -16 -137q-16 -60 -45 -97q-60 -75 -127 -75q-29 2 -27 45q0 37 11 67l90 484h-193z" />
    <glyph glyph-name="A" unicode="A" 
d="M319 606l48 598h8l39 -598h-95zM-8 0h258l45 397h137l33 -397h301l-174 1458h-383z" />
    <glyph glyph-name="B" unicode="B" 
d="M430 944q0 -96 -68 -92h-34v397h34q68 2 68 -92v-213zM39 0h340q170 0 256 72q84 71 84 256v127q0 172 -51 241q-52 70 -166 76v6q135 29 178 101q41 69 39 174v110q-2 166 -101 234q-100 63 -239 61h-340v-1458zM328 672h34q37 0 54 -13q14 -14 14 -57v-323
q0 -41 -14 -56q-17 -14 -54 -14h-34v463z" />
    <glyph glyph-name="C" unicode="C" 
d="M430 573v-288q0 -33 -6 -62q-12 -35 -45 -35t-41 35q-10 29 -10 62v888q0 33 10 66q8 29 41 31q33 -2 45 -31q6 -33 6 -66v-229h289v277q-2 145 -101 208q-100 58 -239 58q-135 0 -236 -58q-102 -63 -104 -208v-983q2 -142 104 -205q101 -62 236 -62q139 0 239 62
q99 63 101 205v335h-289z" />
    <glyph glyph-name="D" unicode="D" 
d="M39 0h340q139 0 239 61q99 64 101 205v926q-2 145 -101 209q-100 57 -239 57h-340v-1458zM328 1249h51q33 -2 45 -31q6 -32 6 -65v-848q0 -33 -6 -61q-12 -35 -45 -35h-51v1040z" />
    <glyph glyph-name="E" unicode="E" horiz-adv-x="606" 
d="M588 0v209h-252v498h241v208h-241v334h252v209h-541v-1458h541z" />
    <glyph glyph-name="F" unicode="F" horiz-adv-x="606" 
d="M336 0v707h241v208h-241v334h252v209h-541v-1458h289z" />
    <glyph glyph-name="G" unicode="G" 
d="M580 0h139v743h-361v-209h72v-249q0 -33 -6 -62q-12 -35 -45 -35t-41 35q-10 29 -10 62v888q0 33 10 66q8 29 41 31q33 -2 45 -31q6 -33 6 -66v-229h289v277q-2 145 -101 208q-100 58 -239 58q-135 0 -236 -58q-102 -63 -104 -208v-983q0 -258 291 -267q69 0 133 35
q61 35 92 98h4z" />
    <glyph glyph-name="H" unicode="H" 
d="M328 0v696h102v-696h289v1458h-289v-528h-102v528h-289v-1458h289z" />
    <glyph glyph-name="I" unicode="I" horiz-adv-x="418" 
d="M352 0v1458h-289v-1458h289z" />
    <glyph glyph-name="J" unicode="J" 
d="M39 573v-282q0 -324 340 -320q340 -4 340 320v1167h-289v-1145q0 -51 -8 -86q-10 -39 -43 -39q-29 0 -41 39q-10 35 -10 86v260h-289z" />
    <glyph glyph-name="K" unicode="K" 
d="M315 0v764h4l146 -764h287l-179 854l177 604h-285l-146 -645h-4v645h-288v-1458h288z" />
    <glyph glyph-name="L" unicode="L" horiz-adv-x="606" 
d="M584 0v209h-256v1249h-289v-1458h545z" />
    <glyph glyph-name="M" unicode="M" horiz-adv-x="1214" 
d="M307 0v1053h4l168 -1053h248l176 1073l4 -4v-1069h260v1458h-403l-144 -979h-4l-125 979h-444v-1458h260z" />
    <glyph glyph-name="N" unicode="N" horiz-adv-x="872" 
d="M272 0v1143l4 4l205 -1147h344v1458h-225v-946h-4l-148 946h-401v-1458h225z" />
    <glyph glyph-name="O" unicode="O" 
d="M39 238q2 -142 104 -205q101 -62 236 -62q139 0 239 62q99 63 101 205v983q-2 145 -101 208q-100 58 -239 58q-135 0 -236 -58q-102 -63 -104 -208v-983zM430 285q0 -33 -6 -62q-12 -35 -45 -35t-41 35q-10 29 -10 62v888q0 33 10 66q8 29 41 31q33 -2 45 -31
q6 -33 6 -66v-888z" />
    <glyph glyph-name="P" unicode="P" 
d="M328 1249h34q68 2 68 -92v-287q0 -96 -68 -92h-34v471zM328 0v569h51q69 0 131 17q61 16 108 49q99 65 101 229v299q-2 166 -101 234q-100 63 -239 61h-340v-1458h289z" />
    <glyph glyph-name="Q" unicode="Q" 
d="M719 -45h-78q-35 0 -57 10q-27 8 -31 35q74 29 121 86q45 57 45 152v983q-2 145 -101 208q-100 58 -239 58q-135 0 -236 -58q-102 -63 -104 -208v-983q2 -142 104 -205q101 -62 236 -62q22 0 41 4q2 -106 49 -170q45 -65 145 -67h105v217zM430 285q0 -33 -6 -62
q-12 -35 -45 -35t-41 35q-10 29 -10 62v888q0 33 10 66q8 29 41 31q33 -2 45 -31q6 -33 6 -66v-888z" />
    <glyph glyph-name="R" unicode="R" 
d="M328 0v682q73 0 90 -45q14 -47 12 -117v-332q0 -71 14 -114q11 -45 25 -74h293q-12 41 -27 100q-16 56 -16 158v289q2 125 -43 182t-180 64v4q67 6 110 28q43 23 68 56q24 34 37 73q8 41 8 80v129q-2 166 -101 234q-100 63 -239 61h-340v-1458h289zM328 1249h34
q68 2 68 -92v-215q0 -96 -68 -92h-34v399z" />
    <glyph glyph-name="S" unicode="S" 
d="M715 938v283q-2 145 -101 208q-100 58 -239 58q-135 0 -236 -58q-102 -63 -104 -208v-183q0 -61 20 -106q17 -49 45 -86q29 -35 64 -66q35 -33 72 -67q38 -31 75 -68q35 -39 64 -88q59 -98 61 -272q0 -33 -6 -62q-12 -35 -45 -35t-41 35q-10 29 -10 62v288h-289v-335
q2 -142 104 -205q101 -62 236 -62q139 0 240 62q98 63 100 205v127q0 100 -16 174q-17 71 -45 122q-27 52 -62 91q-37 36 -74 67q-37 33 -71 66q-35 30 -66 69q-61 74 -67 219q0 33 10 66q8 29 41 31q33 -2 45 -31q6 -33 6 -66v-235h289z" />
    <glyph glyph-name="T" unicode="T" horiz-adv-x="682" 
d="M485 1249h195v209h-678v-209h195v-1249h288v1249z" />
    <glyph glyph-name="U" unicode="U" 
d="M719 1458h-289v-1173q0 -33 -6 -62q-12 -35 -45 -35t-41 35q-10 29 -10 62v1173h-289v-1220q2 -142 104 -205q101 -62 236 -62q139 0 239 62q99 63 101 205v1220z" />
    <glyph glyph-name="V" unicode="V" 
d="M303 1458h-299l172 -1458h383l195 1458h-260l-107 -1192h-4z" />
    <glyph glyph-name="W" unicode="W" horiz-adv-x="1214" 
d="M455 1458l-105 -956h-4l-59 956h-289l147 -1458h324l111 1018h4l98 -1018h332l202 1458h-288l-74 -956h-4l-82 956h-313z" />
    <glyph glyph-name="X" unicode="X" 
d="M2 1458l162 -704l-174 -754h270l100 623h5l94 -623h307l-172 795l160 663h-263l-92 -526h-4l-92 526h-301z" />
    <glyph glyph-name="Y" unicode="Y" 
d="M244 0h288v731l222 727h-260l-91 -579h-4l-92 579h-303l240 -727v-731z" />
    <glyph glyph-name="Z" unicode="Z" horiz-adv-x="606" 
d="M596 209h-289l277 1040v209h-576v-209h275l-263 -1040v-209h576v209z" />
    <glyph glyph-name="bracketleft" unicode="[" horiz-adv-x="606" 
d="M528 -195v205h-204v1272h194v205h-440v-1682h450z" />
    <glyph glyph-name="backslash" unicode="\" horiz-adv-x="569" 
d="M-111 1487l629 -1516h162l-627 1516h-164z" />
    <glyph glyph-name="bracketright" unicode="]" horiz-adv-x="606" 
d="M78 -195h450v1682h-440v-205h195v-1272h-205v-205z" />
    <glyph glyph-name="asciicircum" unicode="^" horiz-adv-x="1139" 
d="M342 711l227 507v0l226 -507h239l-356 747h-217l-357 -747h238z" />
    <glyph glyph-name="underscore" unicode="_" horiz-adv-x="1024" 
d="M1024 -256v102h-1024v-102h1024z" />
    <glyph glyph-name="grave" unicode="`" horiz-adv-x="342" 
d="M188 1270h113l-195 276h-198z" />
    <glyph glyph-name="a" unicode="a" horiz-adv-x="682" 
d="M295 453q0 36 10 53q8 16 35 39l47 32v0v-337q0 -23 -8 -41q-12 -21 -39 -21q-25 0 -33 21q-12 18 -12 41v213zM35 764h260v168q0 22 12 43q8 16 33 18q27 -2 39 -18q8 -21 8 -43v-47q-2 -92 -53 -131q-51 -43 -123 -70q-68 -27 -119 -76q-24 -26 -41 -65
q-16 -39 -16 -95v-251q-6 -207 174 -211q119 -2 174 133h4l14 -119h265q-17 117 -19 238v684q-2 133 -90 200q-90 64 -217 64t-213 -64q-90 -67 -92 -200v-158z" />
    <glyph glyph-name="b" unicode="b" horiz-adv-x="682" 
d="M295 911q0 25 12 43q8 17 33 19q27 -2 39 -19q8 -20 8 -43v-651q0 -22 -8 -41q-12 -20 -39 -20q-25 0 -33 20q-12 19 -12 41v651zM35 0h260v123h4q20 -62 63 -98q43 -37 103 -39q61 0 98 22q37 23 55 60q19 36 25 84q4 47 4 96v682q0 49 -4 96q-6 47 -25 82
q-18 37 -55 59q-37 19 -98 19q-60 0 -103 -33q-43 -31 -63 -84h-4v389h-260v-1458z" />
    <glyph glyph-name="c" unicode="c" horiz-adv-x="682" 
d="M647 465h-260v-225q0 -23 -8 -41q-12 -21 -39 -21q-25 0 -33 21q-12 18 -12 41v692q0 22 12 43q8 16 33 18q27 -2 39 -18q8 -21 8 -43v-168h260v158q-2 133 -90 200q-90 64 -217 64t-213 -64q-90 -67 -92 -200v-672q2 -131 92 -197q86 -67 213 -67t217 67q88 66 90 197
v215z" />
    <glyph glyph-name="d" unicode="d" horiz-adv-x="682" 
d="M387 260q0 -22 -8 -41q-12 -20 -39 -20q-25 0 -33 20q-12 19 -12 41v651q0 23 12 43q8 17 33 19q27 -2 39 -19q8 -20 8 -43v-651zM387 0h260v1458h-260v-389h-4q-16 53 -61 84q-46 33 -105 33q-57 0 -94 -19q-37 -22 -55 -59q-19 -35 -25 -82q-8 -47 -8 -96v-682
q0 -49 8 -96q6 -48 25 -84q18 -37 55 -60q37 -22 94 -22q59 2 105 39q45 36 61 98h4v-123z" />
    <glyph glyph-name="e" unicode="e" horiz-adv-x="682" 
d="M35 250q2 -131 92 -197q86 -67 213 -67t217 67q88 66 90 197v215h-260v-225q0 -23 -8 -41q-12 -21 -39 -21q-25 0 -33 21q-12 18 -12 41v305h352v377q-2 133 -90 200q-90 64 -217 64t-213 -64q-90 -67 -92 -200v-672zM295 721v211q0 22 12 43q8 16 33 18q27 -2 39 -18
q8 -21 8 -43v-211h-92z" />
    <glyph glyph-name="f" unicode="f" horiz-adv-x="418" 
d="M74 0h260v979h80v192h-80v23q-2 37 12 55q10 17 49 17h19v192h-109q-125 2 -178 -43q-53 -47 -53 -168v-76h-62v-192h62v-979z" />
    <glyph glyph-name="g" unicode="g" horiz-adv-x="682" 
d="M387 395q0 -22 -8 -41q-12 -20 -39 -20q-25 0 -33 20q-12 19 -12 41v516q0 23 12 43q8 17 33 19q27 -2 39 -19q8 -20 8 -43v-516zM647 1171h-260v-108h-10q-23 51 -70 86q-49 35 -108 37q-88 -2 -125 -60q-39 -61 -39 -149v-649q0 -84 39 -140q37 -59 125 -59
q59 0 108 33q47 30 70 80h10v-262q0 -23 -8 -41q-12 -19 -39 -21q-25 2 -33 21q-12 18 -12 41v110h-260v-88q0 -143 88 -203q82 -61 219 -61q139 0 221 61q82 60 84 203v1169z" />
    <glyph glyph-name="h" unicode="h" horiz-adv-x="682" 
d="M295 0v911q0 23 12 43q8 17 33 19q27 -2 39 -19q8 -20 8 -43v-911h260v930q0 53 -2 98q-2 47 -20 82q-15 37 -50 57q-36 19 -100 19q-55 0 -106 -31q-52 -31 -64 -86h-10v389h-260v-1458h260z" />
    <glyph glyph-name="i" unicode="i" horiz-adv-x="342" 
d="M301 0v1171h-260v-1171h260zM301 1237v221h-260v-221h260z" />
    <glyph glyph-name="j" unicode="j" horiz-adv-x="342" 
d="M311 1171h-260v-1169q0 -39 -8 -57q-14 -21 -55 -21h-45v-186h98q31 0 57 4q27 0 51 2q25 4 48 10q20 4 39 13q36 18 57 57q18 39 18 104v1243zM311 1237v221h-260v-221h260z" />
    <glyph glyph-name="k" unicode="k" horiz-adv-x="682" 
d="M299 0v616h4l105 -616h266l-123 668l127 503h-270l-105 -526h-4v813h-260v-1458h260z" />
    <glyph glyph-name="l" unicode="l" horiz-adv-x="342" 
d="M301 0v1458h-260v-1458h260z" />
    <glyph glyph-name="m" unicode="m" horiz-adv-x="1024" 
d="M289 1171h-260v-1171h260v911q0 23 12 43q8 17 33 19q26 -2 39 -19q8 -20 8 -43v-911h260v911q0 23 12 43q8 17 33 19q27 -2 39 -19q8 -20 8 -43v-911h260v969q2 73 -28 143q-17 35 -54 55q-37 19 -98 19q-74 0 -111 -31q-36 -31 -67 -90v0q-21 70 -60 96q-38 25 -108 25
q-74 0 -109 -29q-36 -31 -65 -90h-4v104z" />
    <glyph glyph-name="n" unicode="n" horiz-adv-x="682" 
d="M295 1171h-260v-1171h260v911q0 23 12 43q8 17 33 19q27 -2 39 -19q8 -20 8 -43v-911h260v930q0 53 -2 98q-2 47 -20 82q-15 37 -50 57q-36 19 -100 19q-55 0 -106 -31q-56 -31 -70 -86h-4v102z" />
    <glyph glyph-name="o" unicode="o" horiz-adv-x="682" 
d="M647 922q-2 133 -90 200q-90 64 -217 64t-213 -64q-90 -67 -92 -200v-672q2 -131 92 -197q86 -67 213 -67t217 67q88 66 90 197v672zM387 240q0 -23 -8 -41q-12 -21 -39 -21q-25 0 -33 21q-12 18 -12 41v692q0 22 12 43q8 16 33 18q27 -2 39 -18q8 -21 8 -43v-692z" />
    <glyph glyph-name="p" unicode="p" horiz-adv-x="682" 
d="M391 260q0 -22 -8 -41q-12 -20 -39 -20q-25 0 -33 20q-12 19 -12 41v651q0 23 12 43q8 17 33 19q27 -2 39 -19q8 -20 8 -43v-651zM299 1171h-260v-1433h260v364h4q14 -49 57 -82q43 -34 103 -34q61 0 100 22q37 23 55 58q21 36 29 83q4 43 4 93v682q0 49 -4 96
q-8 47 -29 84q-18 37 -55 59q-39 23 -100 23q-60 0 -103 -37t-57 -100h-4v122z" />
    <glyph glyph-name="q" unicode="q" horiz-adv-x="682" 
d="M295 911q0 23 12 43q8 17 33 19q27 -2 39 -19q8 -20 8 -43v-651q0 -22 -8 -41q-12 -20 -39 -20q-25 0 -33 20q-12 19 -12 41v651zM647 1171h-260v-122h-4q-41 133 -166 137q-57 0 -94 -23q-37 -22 -55 -59q-19 -37 -25 -84q-8 -47 -8 -96v-682q0 -50 8 -93q6 -47 25 -83
q18 -35 55 -58q37 -22 94 -22q59 0 105 34q45 33 61 82h4v-364h260v1433z" />
    <glyph glyph-name="r" unicode="r" horiz-adv-x="682" 
d="M295 1171h-260v-1171h260v911q0 23 12 43q8 17 33 19q27 -2 39 -19q8 -20 8 -43v-370h260v440q0 96 -31 151q-34 54 -131 54q-131 -2 -186 -115h-4v100z" />
    <glyph glyph-name="s" unicode="s" horiz-adv-x="682" 
d="M393 764h260v158q-2 133 -92 200q-88 64 -221 64q-125 0 -215 -64q-94 -67 -96 -200v-99q2 -110 59 -174q55 -63 125 -104q35 -21 68 -39q32 -21 57 -45q53 -45 55 -123v-98q0 -23 -10 -41q-12 -21 -43 -21t-39 21q-12 18 -12 41v204h-260v-194q2 -131 96 -197
q90 -67 215 -67q133 0 221 67q90 66 92 197v94q0 68 -14 119q-16 51 -41 88q-55 72 -125 113q-35 24 -65 45q-31 18 -60 41q-57 40 -59 114v68q0 22 12 43q8 16 39 18q31 -2 43 -18q10 -21 10 -43v-168z" />
    <glyph glyph-name="t" unicode="t" horiz-adv-x="418" 
d="M336 1384h-260v-213h-70v-192h70v-741q-2 -134 41 -187q43 -51 178 -51h117v192h-31q-27 0 -35 29q-10 23 -10 51v707h72v192h-72v213z" />
    <glyph glyph-name="u" unicode="u" horiz-adv-x="682" 
d="M387 0h260v1171h-260v-911q0 -22 -8 -41q-12 -20 -39 -20q-25 0 -33 20q-12 19 -12 41v911h-260v-976q0 -93 41 -150t141 -59q62 2 115 43q49 43 51 102h4v-131z" />
    <glyph glyph-name="v" unicode="v" horiz-adv-x="682" 
d="M10 1171l172 -1171h318l170 1171h-238l-82 -895h-4l-67 895h-269z" />
    <glyph glyph-name="w" unicode="w" horiz-adv-x="1100" 
d="M6 1171l166 -1171h295l90 852h4l66 -852h295l174 1171h-246l-76 -909h-4l-72 909h-270l-84 -905h-4l-68 905h-266z" />
    <glyph glyph-name="x" unicode="x" horiz-adv-x="682" 
d="M2 0h242l84 473h4l73 -473h275l-139 608l129 563h-240l-70 -446h-4l-69 446h-273l133 -555z" />
    <glyph glyph-name="y" unicode="y" horiz-adv-x="682" 
d="M430 1171l-86 -895h-4l-72 895h-260l178 -1153q2 -20 2 -34q2 -56 -73 -54h-82v-192h131q186 -2 248 51q61 51 75 199l185 1183h-242z" />
    <glyph glyph-name="z" unicode="z" horiz-adv-x="530" 
d="M231 979l-213 -787v-192h494v192h-227l227 787v192h-487v-192h206z" />
    <glyph glyph-name="braceleft" unicode="{" horiz-adv-x="682" 
d="M604 1487h-129q-74 0 -168 -56q-43 -26 -71 -73q-33 -49 -33 -113v-379q0 -33 -11 -51q-10 -20 -28 -31q-19 -8 -41 -12q-23 -6 -45 -12v-174q22 -2 45 -6q22 -7 41 -15q18 -10 28 -28q11 -21 11 -58v-432q0 -61 33 -106q28 -45 71 -76q45 -31 92 -43q45 -17 76 -17h129
v158h-37q-39 0 -63 12q-25 11 -37 27q-12 18 -14 39q-5 18 -5 37v409q0 64 -22 101q-25 37 -59 53q-35 18 -72 23q-39 6 -68 6v6q62 0 140 35q34 18 59 51q22 33 22 82v370q-2 39 19 76q12 19 37 29q24 10 63 10h37v158z" />
    <glyph glyph-name="bar" unicode="|" horiz-adv-x="455" 
d="M109 -512h237v2048h-237v-2048z" />
    <glyph glyph-name="braceright" unicode="}" horiz-adv-x="682" 
d="M604 745q-22 7 -41 13q-22 4 -41 12q-18 10 -28 31q-15 18 -15 51v379q0 63 -28 112q-29 47 -74 74q-43 31 -88 43q-47 12 -82 12h-129v-157h37q80 -2 102 -39q12 -17 14 -35q2 -23 2 -41v-371q5 -49 29 -82q23 -32 57 -51q35 -18 74 -24q35 -8 62 -11v-6q-60 2 -136 -28
q-34 -17 -57 -54q-24 -36 -29 -100v-410q0 -38 -16 -75q-22 -37 -102 -39h-37v-158h129q74 0 170 60q45 30 74 75q28 45 28 107v432q2 67 43 86q19 8 41 14q19 4 41 6v174z" />
    <glyph glyph-name="asciitilde" unicode="~" horiz-adv-x="1139" 
d="M969 790v0q-33 -55 -76 -98q-43 -47 -105 -49q-36 0 -88 25q-53 20 -112 45q-56 28 -115 49q-61 20 -121 20q-100 -2 -162 -55q-61 -53 -94 -121l74 -196v0q25 57 66 102q38 43 106 45q70 0 127 -20q55 -21 104 -50q52 -24 103 -45q51 -24 110 -24q95 0 154 57
q31 27 57 57q25 31 45 62z" />
    <glyph glyph-name="Euro" 
d="M102 498h-122l40 153h82v164h-122l40 154h82v252q0 21 3 46.5t13.5 52t30.5 53t54 50.5q27 20 58 32.5t63.5 19.5t65 9.5t63.5 2.5q43 0 89.5 -4t96.5 -21q38 -14 67 -31t52 -40l-66 -222q-14 25 -33 43t-45 33q-29 16 -51 20.5t-51 4.5q-25 0 -51.5 -7t-44.5 -30
q-13 -16 -19 -39t-6 -51v-174h256l-41 -154h-215v-164h180l-41 -153h-139v-174q0 -20 5.5 -48t25.5 -51q23 -26 52.5 -31.5t53.5 -5.5q29 0 53.5 5.5t53.5 17.5q26 11 52.5 29t49.5 43v-238q-24 -17 -48.5 -27.5t-55.5 -19.5q-47 -14 -94 -20.5t-90 -6.5q-31 0 -64 3.5
t-65 11t-61.5 19t-53.5 28.5q-35 24 -55 52.5t-31 56.5t-14 53t-3 43v260z" />
    <glyph glyph-name="Euro" unicode="&#x20ac;" 
d="M102 498h-122l40 153h82v164h-122l40 154h82v252q0 21 3 46.5t13.5 52t30.5 53t54 50.5q27 20 58 32.5t63.5 19.5t65 9.5t63.5 2.5q43 0 89.5 -4t96.5 -21q38 -14 67 -31t52 -40l-66 -222q-14 25 -33 43t-45 33q-29 16 -51 20.5t-51 4.5q-25 0 -51.5 -7t-44.5 -30
q-13 -16 -19 -39t-6 -51v-174h256l-41 -154h-215v-164h180l-41 -153h-139v-174q0 -20 5.5 -48t25.5 -51q23 -26 52.5 -31.5t53.5 -5.5q29 0 53.5 5.5t53.5 17.5q26 11 52.5 29t49.5 43v-238q-24 -17 -48.5 -27.5t-55.5 -19.5q-47 -14 -94 -20.5t-90 -6.5q-31 0 -64 3.5
t-65 11t-61.5 19t-53.5 28.5q-35 24 -55 52.5t-31 56.5t-14 53t-3 43v260z" />
    <glyph glyph-name="nonbreakingspace" unicode="&#xa0;" horiz-adv-x="379" 
 />
    <glyph glyph-name="exclamdown" unicode="&#xa1;" horiz-adv-x="530" 
d="M395 -233v1083h-260v-1083h260zM395 922v303h-260v-303h260z" />
    <glyph glyph-name="cent" unicode="&#xa2;" 
d="M422 465v-225q0 -23 -8 -41q-13 -21 -39 -21q-25 0 -33 21q-12 18 -12 41v692q0 22 12 43q8 16 33 18q26 -2 39 -18q8 -21 8 -43v-168h260v158q-4 145 -107 208l37 160h-149l-35 -108q-27 4 -53 4q-127 0 -213 -64q-90 -67 -92 -200v-672q0 -94 51 -156q47 -61 125 -88
l-21 -145h148l18 127q123 4 207 71q82 66 84 191v215h-260z" />
    <glyph glyph-name="sterling" unicode="&#xa3;" 
d="M526 651v154h-151q-47 178 -49 368q0 33 12 66q10 29 43 31q33 -2 45 -31q6 -33 6 -66v-151h275v199q-3 145 -101 208q-100 58 -239 58q-136 0 -230 -58q-94 -63 -96 -208v-72q0 -117 16 -203q15 -86 33 -141h-76v-154h97q12 -59 12 -145t-19 -176q-22 -90 -90 -168
l29 -191q121 25 240 23q61 0 122 -10q62 -11 127 -13q109 -2 209 37l-24 217v0q-31 -12 -58 -18q-28 -6 -53 -10q-47 -9 -92 -5q-20 0 -43 5q-23 4 -47 6q-25 4 -51 6q-31 2 -64 2q-37 0 -73 -2q83 94 116 209q17 55 23 116q4 60 4 117h147z" />
    <glyph glyph-name="currency" unicode="&#xa4;" 
d="M8 319l88 -88v0l82 82v0q74 -65 205 -67q59 0 113 20q53 19 86 49v0l82 -82v0l86 86l-80 80q63 78 63 203q0 62 -14 115q-17 53 -47 84l78 80l-95 96v0l-82 -82v0q-65 57 -190 59q-129 -2 -203 -63v0l-82 82v0l-90 -90l84 -82q-33 -33 -49 -86q-16 -54 -16 -115
q0 -123 65 -199zM383 797q82 -2 131 -58q47 -55 47 -137t-47 -137q-49 -60 -131 -62q-80 0 -131 60q-53 55 -53 137q0 84 53 141q51 54 131 56v0z" />
    <glyph glyph-name="yen" unicode="&#xa5;" 
d="M4 1458l180 -455h-155v-153h184l31 -88v-78h-164v-154h164v-530h288v530h164v154h-164v78l33 88h182v153h-157l164 455h-260l-91 -579h-4l-92 579h-303z" />
    <glyph glyph-name="brokenbar" unicode="&#xa6;" horiz-adv-x="455" 
d="M109 -358h237v716h-237v-716zM109 666h237v716h-237v-716z" />
    <glyph glyph-name="section" unicode="&#xa7;" horiz-adv-x="872" 
d="M338 858q53 -45 143 -108q41 -31 70 -64t29 -68q0 -18 -11 -49q-12 -32 -28 -45q-23 25 -62 56q-41 28 -84 61q-41 35 -71 68q-33 34 -33 65q0 57 47 84v0zM778 1190q-2 145 -92 221q-92 76 -231 76q-127 0 -226 -72q-104 -74 -106 -211q0 -53 14 -104q15 -54 51 -92
q-137 -105 -139 -275q2 -115 76 -194q72 -82 164 -142q92 -59 164 -116q71 -58 73 -125q-4 -90 -100 -90q-59 2 -80 49q-20 43 -18 90h-242q8 -332 344 -332q141 0 238 78q98 78 100 221q0 66 -16 123q-19 55 -70 98q139 90 139 254q-2 117 -69 201q-68 82 -158 143
q-90 62 -158 115q-31 26 -51 53q-20 25 -20 51q0 82 75 84q51 0 72 -30q25 -27 27 -74h239z" />
    <glyph glyph-name="dieresis" unicode="&#xa8;" horiz-adv-x="342" 
d="M98 1294v223h-192v-223h192zM436 1294v223h-192v-223h192z" />
    <glyph glyph-name="copyright" unicode="&#xa9;" horiz-adv-x="1638" 
d="M819 -29q316 2 547 201q233 197 240 557q-7 365 -240 561q-231 195 -547 197q-315 -2 -545 -197q-235 -196 -241 -561q6 -360 241 -557q230 -199 545 -201v0zM1356 729q-4 -256 -158 -410q-154 -157 -379 -159q-227 2 -377 159q-157 154 -159 410q2 260 159 414
q150 153 377 155q225 -2 379 -155q154 -154 158 -414v0zM1020 618q-4 -67 -51 -98t-119 -31q-86 0 -137 72q-56 70 -56 178q2 242 189 246q63 0 112 -25q47 -28 62 -98h184q-22 154 -121 234q-96 77 -237 77q-193 -2 -301 -122q-113 -121 -113 -316q2 -186 117 -307
q110 -125 301 -127q135 0 237 82q101 80 125 235h-192z" />
    <glyph glyph-name="ordfeminine" unicode="&#xaa;" horiz-adv-x="410" 
d="M158 1049q-2 34 28 55l56 18v-203q2 -34 -43 -36q-25 0 -33 14q-8 10 -8 22v130zM14 1235h144v100q0 15 8 27q6 10 20 10q19 0 25 -10q6 -12 6 -27v-28q-2 -54 -31 -78q-28 -25 -69 -41q-39 -17 -68 -45q-35 -33 -35 -99v-149q0 -57 21 -92q20 -35 78 -35q94 -2 125 80h4
l8 -80h147q-10 80 -12 151v410q-2 80 -57 121q-58 37 -142 37q-69 0 -118 -37q-54 -41 -54 -121v-94z" />
    <glyph glyph-name="guillemotleft" unicode="&#xab;" horiz-adv-x="682" 
d="M647 1096v0l-289 -324v-274l289 -324v0v277l-178 184l178 184v277zM313 1096v0l-288 -324v-274l288 -324v0v277l-178 184l178 184v277z" />
    <glyph glyph-name="logicalnot" unicode="&#xac;" horiz-adv-x="1139" 
d="M833 305h238v637h-1003v-238h765v-399z" />
    <glyph glyph-name="uni00AD" unicode="&#xad;" horiz-adv-x="530" 
d="M442 541v188h-354v-188h354z" />
    <glyph glyph-name="registered" unicode="&#xae;" horiz-adv-x="1638" 
d="M819 -29q316 2 547 201q233 197 240 557q-7 365 -240 561q-231 195 -547 197q-315 -2 -545 -197q-235 -196 -241 -561q6 -360 241 -557q230 -199 545 -201v0zM1356 729q-4 -256 -158 -410q-154 -157 -379 -159q-227 2 -377 159q-157 154 -159 410q2 260 159 414
q150 153 377 155q225 -2 379 -155q154 -154 158 -414v0zM698 661h68l186 -342h189l-209 357q227 -2 231 215q-2 145 -92 201q-90 51 -254 51h-307v-824h188v342zM698 809v186h115q51 0 100 -10q25 -8 41 -25q13 -18 13 -49q0 -59 -29 -80q-29 -22 -84 -22h-156z" />
    <glyph glyph-name="macron" unicode="&#xaf;" horiz-adv-x="342" 
d="M451 1337v133h-549v-133h549z" />
    <glyph glyph-name="degree" unicode="&#xb0;" horiz-adv-x="819" 
d="M410 1335q77 0 120 -45q41 -47 41 -125t-41 -121q-43 -49 -120 -49q-76 0 -117 49q-45 43 -45 121t45 125q41 45 117 45v0zM410 872q127 2 208 86q82 82 84 207q-2 127 -84 209q-81 82 -208 84q-125 -2 -207 -84q-84 -82 -86 -209q2 -125 86 -207q82 -84 207 -86v0z" />
    <glyph glyph-name="plusminus" unicode="&#xb1;" horiz-adv-x="1139" 
d="M451 858h-383v-238h383v-239h237v239h383v238h-383v231h-237v-231zM68 82h1003v237h-1003v-237z" />
    <glyph glyph-name="twosuperior" unicode="&#xb2;" horiz-adv-x="491" 
d="M467 725h-254q0 57 41 119q39 61 86 129q51 67 90 147q35 80 37 170v37q-2 88 -66 125q-63 35 -155 35q-88 0 -154 -35q-65 -37 -67 -125v-170h188v141q0 21 6 39q6 17 27 19q22 -2 30 -19q5 -18 5 -39q-2 -86 -37 -155q-39 -72 -90 -133q-50 -62 -88 -117
q-41 -57 -41 -119v-180h442v131z" />
    <glyph glyph-name="threesuperior" unicode="&#xb3;" horiz-adv-x="491" 
d="M160 983h37q51 0 67 -12q17 -15 17 -54v-153q0 -21 -5 -37q-8 -20 -30 -20q-21 0 -27 20q-6 16 -6 37v174h-188v-201q2 -84 67 -121q66 -39 154 -39q92 0 155 39q64 37 66 121v139q0 70 -23 117q-28 45 -106 56v6q78 12 106 59q23 45 23 113v100q-2 88 -66 125
q-63 35 -155 35q-88 0 -154 -35q-65 -37 -67 -125v-170h188v141q0 21 6 39q6 17 27 19q22 -2 30 -19q5 -18 5 -39v-120q0 -39 -17 -52q-16 -14 -67 -14h-37v-129z" />
    <glyph glyph-name="acute" unicode="&#xb4;" horiz-adv-x="342" 
d="M197 1270l280 276h-198l-195 -276h113z" />
    <glyph glyph-name="mu" unicode="&#xb5;" horiz-adv-x="682" 
d="M35 -262h260v270q41 23 61 55q25 33 29 68h6v-131h256v1171h-260v-911q0 -22 -8 -41q-12 -20 -39 -20q-25 0 -33 20q-12 19 -12 41v911h-260v-1433z" />
    <glyph glyph-name="paragraph" unicode="&#xb6;" horiz-adv-x="1270" 
d="M528 -367h246v1637h96v-1637h246v1637h121v188h-662q-75 0 -147 -14q-74 -15 -137 -56q-62 -38 -99 -110q-38 -74 -38 -184q2 -164 108 -256q103 -95 266 -95v-1110z" />
    <glyph glyph-name="periodcentered" unicode="&#xb7;" horiz-adv-x="379" 
d="M197 752q-70 0 -123 -45q-58 -48 -58 -123q0 -76 50 -123q47 -51 122 -51q76 0 123 53q47 51 49 123q-2 69 -47 116q-47 48 -116 50v0z" />
    <glyph glyph-name="periodcentered" unicode="&#x2219;" horiz-adv-x="379" 
d="M197 752q-70 0 -123 -45q-58 -48 -58 -123q0 -76 50 -123q47 -51 122 -51q76 0 123 53q47 51 49 123q-2 69 -47 116q-47 48 -116 50v0z" />
    <glyph glyph-name="cedilla" unicode="&#xb8;" horiz-adv-x="342" 
d="M-78 -451q23 -8 47 -14q23 -6 47 -10q47 -6 95 -6q73 0 147 14q66 19 119 57q53 39 55 113q0 64 -18 100q-19 37 -54 52q-71 24 -176 26v119h-106v-219h65q52 2 95 -10q43 -15 45 -58q0 -30 -21 -45q-22 -14 -53 -24q-68 -11 -119 -11q-86 2 -168 25v-109z" />
    <glyph glyph-name="onesuperior" unicode="&#xb9;" horiz-adv-x="491" 
d="M100 1266h105v-672h190v874h-151q-27 -98 -144 -98v-104z" />
    <glyph glyph-name="ordmasculine" unicode="&#xba;" horiz-adv-x="410" 
d="M367 1329q-2 80 -56 121q-53 37 -119 37q-63 0 -116 -37q-53 -41 -56 -121v-403q3 -76 56 -117t116 -41q66 0 119 41q54 41 56 117v403zM223 919q0 -34 -31 -36q-14 0 -20 14q-8 10 -8 22v416q0 15 8 27q6 10 20 10q19 0 25 -10q6 -12 6 -27v-416z" />
    <glyph glyph-name="guillemotright" unicode="&#xbb;" horiz-adv-x="682" 
d="M369 1096v-277l178 -184l-178 -184v-277v0l288 324v274l-288 324v0zM35 1096v-277l178 -184l-178 -184v-277v0l289 324v274l-289 324v0z" />
    <glyph glyph-name="onequarter" unicode="&#xbc;" horiz-adv-x="1137" 
d="M881 219v-219h180v219h59v123h-59v532h-260l-176 -532v-123h256zM876 758h5v-416h-109zM166 -29h121l651 1516h-115zM41 1266h104v-672h191v874h-152q-26 -98 -143 -98v-104z" />
    <glyph glyph-name="onehalf" unicode="&#xbd;" horiz-adv-x="1137" 
d="M1120 131h-254q0 57 41 119q39 61 86 129q51 67 90 147q35 80 37 170v37q-2 88 -65 125q-64 35 -156 35q-88 0 -154 -35q-65 -37 -67 -125v-170h188v141q0 21 6 39q7 17 27 19q23 -2 31 -19q4 -18 4 -39q-2 -86 -37 -155q-39 -72 -90 -133q-49 -62 -88 -117
q-41 -57 -41 -119v-180h442v131zM152 -29h120l652 1516h-115zM41 1266h104v-672h191v874h-152q-26 -98 -143 -98v-104z" />
    <glyph glyph-name="threequarters" unicode="&#xbe;" horiz-adv-x="1137" 
d="M203 -29h121l651 1516h-115zM149 983h37q52 0 68 -12q16 -15 16 -54v-153q0 -21 -4 -37q-8 -20 -30 -20q-21 0 -27 20q-6 16 -6 37v174h-189v-201q2 -84 68 -121q65 -39 154 -39q92 0 155 39q64 37 66 121v139q0 70 -23 117q-29 45 -106 56v6q77 12 106 59q23 45 23 113
v100q-2 88 -66 125q-63 35 -155 35q-89 0 -154 -35q-66 -37 -68 -125v-170h189v141q0 21 6 39q6 17 27 19q22 -2 30 -19q4 -18 4 -39v-120q0 -39 -16 -52q-16 -14 -68 -14h-37v-129zM625 219h254v-219h180v219h61v123h-61v532h-260l-174 -532v-123zM772 342l102 416h5v-416
h-107z" />
    <glyph glyph-name="questiondown" unicode="&#xbf;" horiz-adv-x="872" 
d="M483 293v-270q0 -31 -4 -58q-8 -28 -43 -31q-33 3 -41 31q-8 27 -6 58v67q0 90 29 143q22 54 55 95t59 88q27 47 27 123v311h-260v-227q0 -86 -27 -132q-28 -47 -63 -83q-33 -37 -55 -97q-25 -61 -25 -180v-108q4 -283 289 -285q147 0 235 65q88 66 90 217v273h-260z
M299 922h260v303h-260v-303z" />
    <glyph glyph-name="Agrave" unicode="&#xc0;" 
d="M319 606l48 598h8l39 -598h-95zM-8 0h258l45 397h137l33 -397h301l-174 1458h-383zM401 1544h113l-195 276h-198z" />
    <glyph glyph-name="Aacute" unicode="&#xc1;" 
d="M319 606l48 598h8l39 -598h-95zM-8 0h258l45 397h137l33 -397h301l-174 1458h-383zM415 1544l280 276h-198l-195 -276h113z" />
    <glyph glyph-name="Acircumflex" unicode="&#xc2;" 
d="M319 606l48 598h8l39 -598h-95zM-8 0h258l45 397h137l33 -397h301l-174 1458h-383zM382 1716v0l174 -172h119l-197 276h-188l-201 -276h121z" />
    <glyph glyph-name="Atilde" unicode="&#xc3;" 
d="M319 606l48 598h8l39 -598h-95zM-8 0h258l45 397h137l33 -397h301l-174 1458h-383zM582 1785q-11 -45 -45 -55q-35 -10 -82 -4q-45 10 -93 22q-47 11 -81 13q-76 -2 -123 -62q-49 -59 -51 -131h81q17 47 48 62q30 10 71 0q41 -11 84 -23q41 -16 74 -16q86 0 143 55
q53 55 56 139h-82z" />
    <glyph glyph-name="Adieresis" unicode="&#xc4;" 
d="M319 606l48 598h8l39 -598h-95zM-8 0h258l45 397h137l33 -397h301l-174 1458h-383zM311 1568v223h-192v-223h192zM649 1568v223h-192v-223h192z" />
    <glyph glyph-name="Aring" unicode="&#xc5;" 
d="M319 606l48 598h8l39 -598h-95zM-8 0h258l45 397h137l33 -397h301l-174 1458h-383zM198 1767q2 -80 53 -135q24 -27 59 -43q31 -19 72 -19q82 2 139 62q53 55 55 135q-2 74 -55 133q-57 55 -143 57q-78 -2 -127 -57q-51 -59 -53 -133v0zM292 1765q0 94 86 98q45 0 76 -29
q28 -28 28 -69q0 -96 -100 -101q-92 5 -90 101v0z" />
    <glyph glyph-name="AE" unicode="&#xc6;" horiz-adv-x="1024" 
d="M-4 0h270l64 397h149v-397h526v209h-237v498h227v208h-227v334h237v209h-706zM367 606l86 655h26v-655h-112z" />
    <glyph glyph-name="Ccedilla" unicode="&#xc7;" 
d="M430 573v-288q0 -33 -6 -62q-12 -35 -45 -35t-41 35q-10 29 -10 62v888q0 33 10 66q8 29 41 31q33 -2 45 -31q6 -33 6 -66v-229h289v277q-2 145 -101 208q-100 58 -239 58q-135 0 -236 -58q-102 -63 -104 -208v-983q2 -119 72 -181q71 -63 176 -77v-199h65q51 2 94 -10
q43 -15 45 -58q0 -30 -20 -45q-23 -14 -53 -24q-68 -11 -119 -11q-86 2 -168 25v-109q23 -8 47 -14q23 -6 47 -10q47 -6 94 -6q74 0 148 14q65 19 119 57q53 39 55 113q0 64 -18 100q-19 37 -54 52q-71 24 -176 26v90q137 2 230 66q94 61 96 201v335h-289z" />
    <glyph glyph-name="Egrave" unicode="&#xc8;" horiz-adv-x="606" 
d="M588 0v209h-252v498h241v208h-241v334h252v209h-541v-1458h541zM321 1544h113l-195 276h-198z" />
    <glyph glyph-name="Eacute" unicode="&#xc9;" horiz-adv-x="606" 
d="M588 0v209h-252v498h241v208h-241v334h252v209h-541v-1458h541zM335 1544l280 276h-198l-195 -276h113z" />
    <glyph glyph-name="Ecircumflex" unicode="&#xca;" horiz-adv-x="606" 
d="M588 0v209h-252v498h241v208h-241v334h252v209h-541v-1458h541zM302 1716v0l174 -172h119l-197 276h-188l-201 -276h121z" />
    <glyph glyph-name="Edieresis" unicode="&#xcb;" horiz-adv-x="606" 
d="M588 0v209h-252v498h241v208h-241v334h252v209h-541v-1458h541zM231 1568v223h-192v-223h192zM569 1568v223h-192v-223h192z" />
    <glyph glyph-name="Igrave" unicode="&#xcc;" horiz-adv-x="418" 
d="M352 0v1458h-289v-1458h289zM222 1544h113l-195 276h-198z" />
    <glyph glyph-name="Iacute" unicode="&#xcd;" horiz-adv-x="418" 
d="M352 0v1458h-289v-1458h289zM236 1544l280 276h-198l-195 -276h113z" />
    <glyph glyph-name="Icircumflex" unicode="&#xce;" horiz-adv-x="418" 
d="M352 0v1458h-289v-1458h289zM205 1716v0l174 -172h119l-197 276h-188l-201 -276h121z" />
    <glyph glyph-name="Idieresis" unicode="&#xcf;" horiz-adv-x="418" 
d="M352 0v1458h-289v-1458h289zM132 1568v223h-192v-223h192zM470 1568v223h-192v-223h192z" />
    <glyph glyph-name="Eth" unicode="&#xd0;" 
d="M39 0h340q139 0 239 61q99 64 101 205v926q-2 145 -101 209q-100 57 -239 57h-340v-543h-59v-208h59v-707zM328 915v334h51q33 -2 45 -31q6 -32 6 -65v-848q0 -33 -6 -61q-12 -35 -45 -35h-51v498h59v208h-59z" />
    <glyph glyph-name="Ntilde" unicode="&#xd1;" horiz-adv-x="872" 
d="M272 0v1143l4 4l205 -1147h344v1458h-225v-946h-4l-148 946h-401v-1458h225zM639 1785q-11 -45 -45 -55q-35 -10 -82 -4q-45 10 -93 22q-47 11 -81 13q-76 -2 -123 -62q-49 -59 -51 -131h81q17 47 48 62q30 10 71 0q41 -11 84 -23q41 -16 74 -16q86 0 143 55
q53 55 56 139h-82z" />
    <glyph glyph-name="Ograve" unicode="&#xd2;" 
d="M39 238q2 -142 104 -205q101 -62 236 -62q139 0 239 62q99 63 101 205v983q-2 145 -101 208q-100 58 -239 58q-135 0 -236 -58q-102 -63 -104 -208v-983zM430 285q0 -33 -6 -62q-12 -35 -45 -35t-41 35q-10 29 -10 62v888q0 33 10 66q8 29 41 31q33 -2 45 -31
q6 -33 6 -66v-888zM400 1544h113l-195 276h-198z" />
    <glyph glyph-name="Oacute" unicode="&#xd3;" 
d="M39 238q2 -142 104 -205q101 -62 236 -62q139 0 239 62q99 63 101 205v983q-2 145 -101 208q-100 58 -239 58q-135 0 -236 -58q-102 -63 -104 -208v-983zM430 285q0 -33 -6 -62q-12 -35 -45 -35t-41 35q-10 29 -10 62v888q0 33 10 66q8 29 41 31q33 -2 45 -31
q6 -33 6 -66v-888zM414 1544l280 276h-198l-195 -276h113z" />
    <glyph glyph-name="Ocircumflex" unicode="&#xd4;" 
d="M39 238q2 -142 104 -205q101 -62 236 -62q139 0 239 62q99 63 101 205v983q-2 145 -101 208q-100 58 -239 58q-135 0 -236 -58q-102 -63 -104 -208v-983zM430 285q0 -33 -6 -62q-12 -35 -45 -35t-41 35q-10 29 -10 62v888q0 33 10 66q8 29 41 31q33 -2 45 -31
q6 -33 6 -66v-888zM380 1716v0l174 -172h119l-197 276h-188l-201 -276h121z" />
    <glyph glyph-name="Otilde" unicode="&#xd5;" 
d="M39 238q2 -142 104 -205q101 -62 236 -62q139 0 239 62q99 63 101 205v983q-2 145 -101 208q-100 58 -239 58q-135 0 -236 -58q-102 -63 -104 -208v-983zM430 285q0 -33 -6 -62q-12 -35 -45 -35t-41 35q-10 29 -10 62v888q0 33 10 66q8 29 41 31q33 -2 45 -31
q6 -33 6 -66v-888zM578 1785q-11 -45 -45 -55q-35 -10 -82 -4q-45 10 -93 22q-47 11 -81 13q-76 -2 -123 -62q-49 -59 -51 -131h81q17 47 48 62q30 10 71 0q41 -11 84 -23q41 -16 74 -16q86 0 143 55q53 55 56 139h-82z" />
    <glyph glyph-name="Odieresis" unicode="&#xd6;" 
d="M39 238q2 -142 104 -205q101 -62 236 -62q139 0 239 62q99 63 101 205v983q-2 145 -101 208q-100 58 -239 58q-135 0 -236 -58q-102 -63 -104 -208v-983zM430 285q0 -33 -6 -62q-12 -35 -45 -35t-41 35q-10 29 -10 62v888q0 33 10 66q8 29 41 31q33 -2 45 -31
q6 -33 6 -66v-888zM310 1568v223h-192v-223h192zM648 1568v223h-192v-223h192z" />
    <glyph glyph-name="multiply" unicode="&#xd7;" horiz-adv-x="1139" 
d="M209 82l360 358v0l361 -358v0l141 143l-358 361l358 358l-141 145v0l-361 -360v0l-360 360v0l-141 -145l356 -358l-356 -361l141 -143v0z" />
    <glyph glyph-name="Oslash" unicode="&#xd8;" 
d="M426 637h4v-352q0 -33 -6 -62q-12 -35 -45 -35t-41 35q-10 29 -10 62v57zM332 780h-4v393q0 33 10 66q8 29 41 31q33 -2 45 -31q6 -33 6 -66v-98zM166 -127l43 127q78 -29 170 -29q139 0 239 62q99 63 101 205v983q0 86 -39 139l57 166h-151l-25 -72q-78 33 -182 33
q-135 0 -236 -58q-102 -63 -104 -208v-983q0 -95 47 -154l-74 -211h154z" />
    <glyph glyph-name="Ugrave" unicode="&#xd9;" 
d="M719 1458h-289v-1173q0 -33 -6 -62q-12 -35 -45 -35t-41 35q-10 29 -10 62v1173h-289v-1220q2 -142 104 -205q101 -62 236 -62q139 0 239 62q99 63 101 205v1220zM400 1544h113l-195 276h-198z" />
    <glyph glyph-name="Uacute" unicode="&#xda;" 
d="M719 1458h-289v-1173q0 -33 -6 -62q-12 -35 -45 -35t-41 35q-10 29 -10 62v1173h-289v-1220q2 -142 104 -205q101 -62 236 -62q139 0 239 62q99 63 101 205v1220zM414 1544l280 276h-198l-195 -276h113z" />
    <glyph glyph-name="Ucircumflex" unicode="&#xdb;" 
d="M719 1458h-289v-1173q0 -33 -6 -62q-12 -35 -45 -35t-41 35q-10 29 -10 62v1173h-289v-1220q2 -142 104 -205q101 -62 236 -62q139 0 239 62q99 63 101 205v1220zM380 1716v0l174 -172h119l-197 276h-188l-201 -276h121z" />
    <glyph glyph-name="Udieresis" unicode="&#xdc;" 
d="M719 1458h-289v-1173q0 -33 -6 -62q-12 -35 -45 -35t-41 35q-10 29 -10 62v1173h-289v-1220q2 -142 104 -205q101 -62 236 -62q139 0 239 62q99 63 101 205v1220zM310 1568v223h-192v-223h192zM648 1568v223h-192v-223h192z" />
    <glyph glyph-name="Yacute" unicode="&#xdd;" 
d="M244 0h288v731l222 727h-260l-91 -579h-4l-92 579h-303l240 -727v-731zM415 1544l280 276h-198l-195 -276h113z" />
    <glyph glyph-name="Thorn" unicode="&#xde;" 
d="M328 373h51q69 0 131 16q61 16 108 49q99 66 101 230v299q-2 165 -101 233q-100 64 -239 61h-51v197h-289v-1458h289v373zM328 1053h34q68 2 68 -93v-286q0 -97 -68 -92h-34v471z" />
    <glyph glyph-name="germandbls" unicode="&#xdf;" horiz-adv-x="682" 
d="M35 0h260v1223q0 26 8 49q6 22 33 22q41 -2 49 -24q2 -23 2 -47v-158q2 -49 -2 -94q-6 -47 -55 -49v-183q30 -6 45 -18q12 -12 12 -70v-393q0 -29 -10 -55q-10 -29 -47 -29v-182q49 -6 90 -6q74 2 119 32q45 29 69 78q25 51 33 113q6 59 6 123v211q0 86 -10 139
q-12 51 -35 82q-22 31 -47 49q-27 18 -55 33q43 12 73 41q29 26 43 63q31 80 31 158v80q0 127 -78 213q-80 84 -239 86q-289 0 -295 -299v-1188z" />
    <glyph glyph-name="agrave" unicode="&#xe0;" horiz-adv-x="682" 
d="M295 453q0 36 10 53q8 16 35 39l47 32v0v-337q0 -23 -8 -41q-12 -21 -39 -21q-25 0 -33 21q-12 18 -12 41v213zM35 764h260v168q0 22 12 43q8 16 33 18q27 -2 39 -18q8 -21 8 -43v-47q-2 -92 -53 -131q-51 -43 -123 -70q-68 -27 -119 -76q-24 -26 -41 -65
q-16 -39 -16 -95v-251q-6 -207 174 -211q119 -2 174 133h4l14 -119h265q-17 117 -19 238v684q-2 133 -90 200q-90 64 -217 64t-213 -64q-90 -67 -92 -200v-158zM353 1270h113l-195 276h-198z" />
    <glyph glyph-name="aacute" unicode="&#xe1;" horiz-adv-x="682" 
d="M295 453q0 36 10 53q8 16 35 39l47 32v0v-337q0 -23 -8 -41q-12 -21 -39 -21q-25 0 -33 21q-12 18 -12 41v213zM35 764h260v168q0 22 12 43q8 16 33 18q27 -2 39 -18q8 -21 8 -43v-47q-2 -92 -53 -131q-51 -43 -123 -70q-68 -27 -119 -76q-24 -26 -41 -65
q-16 -39 -16 -95v-251q-6 -207 174 -211q119 -2 174 133h4l14 -119h265q-17 117 -19 238v684q-2 133 -90 200q-90 64 -217 64t-213 -64q-90 -67 -92 -200v-158zM368 1270l280 276h-198l-195 -276h113z" />
    <glyph glyph-name="acircumflex" unicode="&#xe2;" horiz-adv-x="682" 
d="M295 453q0 36 10 53q8 16 35 39l47 32v0v-337q0 -23 -8 -41q-12 -21 -39 -21q-25 0 -33 21q-12 18 -12 41v213zM35 764h260v168q0 22 12 43q8 16 33 18q27 -2 39 -18q8 -21 8 -43v-47q-2 -92 -53 -131q-51 -43 -123 -70q-68 -27 -119 -76q-24 -26 -41 -65
q-16 -39 -16 -95v-251q-6 -207 174 -211q119 -2 174 133h4l14 -119h265q-17 117 -19 238v684q-2 133 -90 200q-90 64 -217 64t-213 -64q-90 -67 -92 -200v-158zM334 1442v0l174 -172h119l-197 276h-188l-201 -276h121z" />
    <glyph glyph-name="atilde" unicode="&#xe3;" horiz-adv-x="682" 
d="M295 453q0 36 10 53q8 16 35 39l47 32v0v-337q0 -23 -8 -41q-12 -21 -39 -21q-25 0 -33 21q-12 18 -12 41v213zM35 764h260v168q0 22 12 43q8 16 33 18q27 -2 39 -18q8 -21 8 -43v-47q-2 -92 -53 -131q-51 -43 -123 -70q-68 -27 -119 -76q-24 -26 -41 -65
q-16 -39 -16 -95v-251q-6 -207 174 -211q119 -2 174 133h4l14 -119h265q-17 117 -19 238v684q-2 133 -90 200q-90 64 -217 64t-213 -64q-90 -67 -92 -200v-158zM534 1511q-11 -45 -45 -55q-35 -10 -82 -4q-45 10 -93 22q-47 11 -81 13q-76 -2 -123 -62q-49 -59 -51 -131h81
q17 47 48 62q30 10 71 0q41 -11 84 -23q41 -16 74 -16q86 0 143 55q53 55 56 139h-82z" />
    <glyph glyph-name="adieresis" unicode="&#xe4;" horiz-adv-x="682" 
d="M295 453q0 36 10 53q8 16 35 39l47 32v0v-337q0 -23 -8 -41q-12 -21 -39 -21q-25 0 -33 21q-12 18 -12 41v213zM35 764h260v168q0 22 12 43q8 16 33 18q27 -2 39 -18q8 -21 8 -43v-47q-2 -92 -53 -131q-51 -43 -123 -70q-68 -27 -119 -76q-24 -26 -41 -65
q-16 -39 -16 -95v-251q-6 -207 174 -211q119 -2 174 133h4l14 -119h265q-17 117 -19 238v684q-2 133 -90 200q-90 64 -217 64t-213 -64q-90 -67 -92 -200v-158zM263 1294v223h-192v-223h192zM601 1294v223h-192v-223h192z" />
    <glyph glyph-name="aring" unicode="&#xe5;" horiz-adv-x="682" 
d="M295 453q0 36 10 53q8 16 35 39l47 32v0v-337q0 -23 -8 -41q-12 -21 -39 -21q-25 0 -33 21q-12 18 -12 41v213zM35 764h260v168q0 22 12 43q8 16 33 18q27 -2 39 -18q8 -21 8 -43v-47q-2 -92 -53 -131q-51 -43 -123 -70q-68 -27 -119 -76q-24 -26 -41 -65
q-16 -39 -16 -95v-251q-6 -207 174 -211q119 -2 174 133h4l14 -119h265q-17 117 -19 238v684q-2 133 -90 200q-90 64 -217 64t-213 -64q-90 -67 -92 -200v-158zM150 1493q2 -80 53 -135q24 -27 59 -43q31 -19 72 -19q82 2 139 62q53 55 55 135q-2 74 -55 133q-57 55 -143 57
q-78 -2 -127 -57q-51 -59 -53 -133v0zM244 1491q0 94 86 98q45 0 76 -29q28 -28 28 -69q0 -96 -100 -101q-92 5 -90 101v0z" />
    <glyph glyph-name="ae" unicode="&#xe6;" horiz-adv-x="1024" 
d="M641 721v211q0 22 12 43q8 16 33 18q27 -2 39 -18q8 -21 8 -43v-211h-92zM289 932q0 22 12 43q8 16 33 18q26 -2 39 -18q8 -21 8 -43v-47q-2 -92 -53 -131q-52 -43 -123 -70q-68 -27 -119 -76q-25 -26 -41 -65t-16 -95v-251q2 -121 94 -166q86 -45 213 -45q35 0 78 8
q41 8 80 35q36 -21 90 -31q51 -12 102 -12q303 -6 307 276v203h-260v-225q0 -23 -8 -41q-12 -21 -39 -21q-25 0 -33 21q-12 18 -12 41v305h352v364q0 152 -78 217q-79 60 -225 60q-65 0 -96 -6q-33 -7 -62 -23q-65 25 -96 29h-96q-127 0 -213 -64q-90 -67 -92 -200v-158h254
v168zM289 453q0 36 10 53q8 16 35 39l47 32v0v-337q0 -23 -8 -41q-13 -21 -39 -21q-25 0 -33 21q-12 18 -12 41v213z" />
    <glyph glyph-name="ccedilla" unicode="&#xe7;" horiz-adv-x="682" 
d="M387 465v-225q0 -23 -8 -41q-12 -21 -39 -21q-25 0 -33 21q-12 18 -12 41v692q0 22 12 43q8 16 33 18q27 -2 39 -18q8 -21 8 -43v-168h260v158q-2 133 -90 200q-90 64 -217 64t-213 -64q-90 -67 -92 -200v-672q0 -105 61 -170q29 -31 68 -51q37 -23 84 -35v-213h65
q52 2 95 -10q43 -15 45 -58q0 -30 -21 -45q-22 -14 -53 -24q-68 -11 -119 -11q-86 2 -168 25v-109q23 -8 47 -14q23 -6 47 -10q47 -6 95 -6q73 0 147 14q66 19 119 57q53 39 55 113q0 64 -18 100q-19 37 -54 52q-71 24 -176 26v105q121 2 207 69q84 66 86 195v215h-260z" />
    <glyph glyph-name="egrave" unicode="&#xe8;" horiz-adv-x="682" 
d="M35 250q2 -131 92 -197q86 -67 213 -67t217 67q88 66 90 197v215h-260v-225q0 -23 -8 -41q-12 -21 -39 -21q-25 0 -33 21q-12 18 -12 41v305h352v377q-2 133 -90 200q-90 64 -217 64t-213 -64q-90 -67 -92 -200v-672zM295 721v211q0 22 12 43q8 16 33 18q27 -2 39 -18
q8 -21 8 -43v-211h-92zM359 1270h113l-195 276h-198z" />
    <glyph glyph-name="eacute" unicode="&#xe9;" horiz-adv-x="682" 
d="M35 250q2 -131 92 -197q86 -67 213 -67t217 67q88 66 90 197v215h-260v-225q0 -23 -8 -41q-12 -21 -39 -21q-25 0 -33 21q-12 18 -12 41v305h352v377q-2 133 -90 200q-90 64 -217 64t-213 -64q-90 -67 -92 -200v-672zM295 721v211q0 22 12 43q8 16 33 18q27 -2 39 -18
q8 -21 8 -43v-211h-92zM374 1270l280 276h-198l-195 -276h113z" />
    <glyph glyph-name="ecircumflex" unicode="&#xea;" horiz-adv-x="682" 
d="M35 250q2 -131 92 -197q86 -67 213 -67t217 67q88 66 90 197v215h-260v-225q0 -23 -8 -41q-12 -21 -39 -21q-25 0 -33 21q-12 18 -12 41v305h352v377q-2 133 -90 200q-90 64 -217 64t-213 -64q-90 -67 -92 -200v-672zM295 721v211q0 22 12 43q8 16 33 18q27 -2 39 -18
q8 -21 8 -43v-211h-92zM340 1442v0l174 -172h119l-197 276h-188l-201 -276h121z" />
    <glyph glyph-name="edieresis" unicode="&#xeb;" horiz-adv-x="682" 
d="M35 250q2 -131 92 -197q86 -67 213 -67t217 67q88 66 90 197v215h-260v-225q0 -23 -8 -41q-12 -21 -39 -21q-25 0 -33 21q-12 18 -12 41v305h352v377q-2 133 -90 200q-90 64 -217 64t-213 -64q-90 -67 -92 -200v-672zM295 721v211q0 22 12 43q8 16 33 18q27 -2 39 -18
q8 -21 8 -43v-211h-92zM269 1294v223h-192v-223h192zM607 1294v223h-192v-223h192z" />
    <glyph glyph-name="igrave" unicode="&#xec;" horiz-adv-x="342" 
d="M301 0v1171h-260v-1171h260zM185 1270h113l-195 276h-198z" />
    <glyph glyph-name="iacute" unicode="&#xed;" horiz-adv-x="342" 
d="M301 0v1171h-260v-1171h260zM198 1270l280 276h-198l-195 -276h113z" />
    <glyph glyph-name="icircumflex" unicode="&#xee;" horiz-adv-x="342" 
d="M301 0v1171h-260v-1171h260zM166 1442v0l174 -172h119l-197 276h-188l-201 -276h121z" />
    <glyph glyph-name="idieresis" unicode="&#xef;" horiz-adv-x="342" 
d="M301 0v1171h-260v-1171h260zM95 1294v223h-192v-223h192zM433 1294v223h-192v-223h192z" />
    <glyph glyph-name="eth" unicode="&#xf0;" horiz-adv-x="682" 
d="M387 236q0 -21 -8 -37q-12 -21 -39 -21q-25 0 -33 21q-12 16 -12 37v626q0 23 12 41q8 16 33 16q27 0 39 -16q8 -18 8 -41v-626zM135 1178l135 83v0q60 -69 92 -165q-24 12 -51 14q-28 2 -51 2q-88 0 -154 -76q-69 -76 -71 -200v-603q2 -122 92 -184q86 -61 213 -63
q127 2 217 63q88 62 90 184v603q-2 192 -57 323q-58 131 -137 217l98 62l-45 75v0l-113 -69v0q-49 53 -90 94l-188 -117q41 -33 96 -92l-121 -76l45 -75v0z" />
    <glyph glyph-name="ntilde" unicode="&#xf1;" horiz-adv-x="682" 
d="M295 1171h-260v-1171h260v911q0 23 12 43q8 17 33 19q27 -2 39 -19q8 -20 8 -43v-911h260v930q0 53 -2 98q-2 47 -20 82q-15 37 -50 57q-36 19 -100 19q-55 0 -106 -31q-56 -31 -70 -86h-4v102zM540 1511q-11 -45 -45 -55q-35 -10 -82 -4q-45 10 -93 22q-47 11 -81 13
q-76 -2 -123 -62q-49 -59 -51 -131h81q17 47 48 62q30 10 71 0q41 -11 84 -23q41 -16 74 -16q86 0 143 55q53 55 56 139h-82z" />
    <glyph glyph-name="ograve" unicode="&#xf2;" horiz-adv-x="682" 
d="M647 922q-2 133 -90 200q-90 64 -217 64t-213 -64q-90 -67 -92 -200v-672q2 -131 92 -197q86 -67 213 -67t217 67q88 66 90 197v672zM387 240q0 -23 -8 -41q-12 -21 -39 -21q-25 0 -33 21q-12 18 -12 41v692q0 22 12 43q8 16 33 18q27 -2 39 -18q8 -21 8 -43v-692z
M359 1270h113l-195 276h-198z" />
    <glyph glyph-name="oacute" unicode="&#xf3;" horiz-adv-x="682" 
d="M647 922q-2 133 -90 200q-90 64 -217 64t-213 -64q-90 -67 -92 -200v-672q2 -131 92 -197q86 -67 213 -67t217 67q88 66 90 197v672zM387 240q0 -23 -8 -41q-12 -21 -39 -21q-25 0 -33 21q-12 18 -12 41v692q0 22 12 43q8 16 33 18q27 -2 39 -18q8 -21 8 -43v-692z
M374 1270l280 276h-198l-195 -276h113z" />
    <glyph glyph-name="ocircumflex" unicode="&#xf4;" horiz-adv-x="682" 
d="M647 922q-2 133 -90 200q-90 64 -217 64t-213 -64q-90 -67 -92 -200v-672q2 -131 92 -197q86 -67 213 -67t217 67q88 66 90 197v672zM387 240q0 -23 -8 -41q-12 -21 -39 -21q-25 0 -33 21q-12 18 -12 41v692q0 22 12 43q8 16 33 18q27 -2 39 -18q8 -21 8 -43v-692z
M340 1442v0l174 -172h119l-197 276h-188l-201 -276h121z" />
    <glyph glyph-name="otilde" unicode="&#xf5;" horiz-adv-x="682" 
d="M647 922q-2 133 -90 200q-90 64 -217 64t-213 -64q-90 -67 -92 -200v-672q2 -131 92 -197q86 -67 213 -67t217 67q88 66 90 197v672zM387 240q0 -23 -8 -41q-12 -21 -39 -21q-25 0 -33 21q-12 18 -12 41v692q0 22 12 43q8 16 33 18q27 -2 39 -18q8 -21 8 -43v-692z
M540 1511q-11 -45 -45 -55q-35 -10 -82 -4q-45 10 -93 22q-47 11 -81 13q-76 -2 -123 -62q-49 -59 -51 -131h81q17 47 48 62q30 10 71 0q41 -11 84 -23q41 -16 74 -16q86 0 143 55q53 55 56 139h-82z" />
    <glyph glyph-name="odieresis" unicode="&#xf6;" horiz-adv-x="682" 
d="M647 922q-2 133 -90 200q-90 64 -217 64t-213 -64q-90 -67 -92 -200v-672q2 -131 92 -197q86 -67 213 -67t217 67q88 66 90 197v672zM387 240q0 -23 -8 -41q-12 -21 -39 -21q-25 0 -33 21q-12 18 -12 41v692q0 22 12 43q8 16 33 18q27 -2 39 -18q8 -21 8 -43v-692z
M269 1294v223h-192v-223h192zM607 1294v223h-192v-223h192z" />
    <glyph glyph-name="divide" unicode="&#xf7;" horiz-adv-x="1139" 
d="M1071 467v237h-1003v-237h1003zM408 975q0 -68 51 -113q45 -49 114 -49q68 0 113 51q45 47 47 111q-2 69 -47 117q-47 45 -115 47q-67 -2 -112 -47q-51 -48 -51 -117v0zM408 197q0 -68 51 -113q45 -51 114 -51q68 0 113 51q45 49 47 113q-2 69 -47 114q-47 45 -115 47
q-67 0 -112 -45q-51 -47 -51 -116v0z" />
    <glyph glyph-name="oslash" unicode="&#xf8;" horiz-adv-x="682" 
d="M383 528h4v-288q0 -23 -8 -41q-12 -21 -39 -21q-25 0 -33 21q-12 18 -12 41v28zM299 684h-4v248q0 22 12 43q8 16 33 18q25 0 37 -14q8 -17 8 -37zM152 -139l53 149q61 -24 135 -24q127 0 217 67q88 66 90 197v672q-2 110 -61 170l78 221h-148l-51 -146q-62 19 -125 19
q-127 0 -213 -64q-90 -67 -92 -200v-672q0 -98 51 -160l-80 -229h146z" />
    <glyph glyph-name="ugrave" unicode="&#xf9;" horiz-adv-x="682" 
d="M387 0h260v1171h-260v-911q0 -22 -8 -41q-12 -20 -39 -20q-25 0 -33 20q-12 19 -12 41v911h-260v-976q0 -93 41 -150t141 -59q62 2 115 43q49 43 51 102h4v-131zM359 1270h113l-195 276h-198z" />
    <glyph glyph-name="uacute" unicode="&#xfa;" horiz-adv-x="682" 
d="M387 0h260v1171h-260v-911q0 -22 -8 -41q-12 -20 -39 -20q-25 0 -33 20q-12 19 -12 41v911h-260v-976q0 -93 41 -150t141 -59q62 2 115 43q49 43 51 102h4v-131zM374 1270l280 276h-198l-195 -276h113z" />
    <glyph glyph-name="ucircumflex" unicode="&#xfb;" horiz-adv-x="682" 
d="M387 0h260v1171h-260v-911q0 -22 -8 -41q-12 -20 -39 -20q-25 0 -33 20q-12 19 -12 41v911h-260v-976q0 -93 41 -150t141 -59q62 2 115 43q49 43 51 102h4v-131zM340 1442v0l174 -172h119l-197 276h-188l-201 -276h121z" />
    <glyph glyph-name="udieresis" unicode="&#xfc;" horiz-adv-x="682" 
d="M387 0h260v1171h-260v-911q0 -22 -8 -41q-12 -20 -39 -20q-25 0 -33 20q-12 19 -12 41v911h-260v-976q0 -93 41 -150t141 -59q62 2 115 43q49 43 51 102h4v-131zM269 1294v223h-192v-223h192zM607 1294v223h-192v-223h192z" />
    <glyph glyph-name="yacute" unicode="&#xfd;" horiz-adv-x="682" 
d="M430 1171l-86 -895h-4l-72 895h-260l178 -1153q2 -20 2 -34q2 -56 -73 -54h-82v-192h131q186 -2 248 51q61 51 75 199l185 1183h-242zM375 1270l280 276h-198l-195 -276h113z" />
    <glyph glyph-name="thorn" unicode="&#xfe;" horiz-adv-x="682" 
d="M391 260q0 -22 -8 -41q-12 -20 -39 -20q-25 0 -33 20q-12 19 -12 41v651q0 23 12 43q8 17 33 19q27 -2 39 -19q8 -20 8 -43v-651zM299 1458h-260v-1720h260v364h4q14 -49 57 -82q43 -34 103 -34q61 0 100 22q37 23 55 58q21 36 29 83q4 43 4 93v682q0 49 -4 96
q-8 47 -29 84q-18 37 -55 59q-39 23 -100 23q-60 0 -103 -37t-57 -100h-4v409z" />
    <glyph glyph-name="ydieresis" unicode="&#xff;" horiz-adv-x="682" 
d="M430 1171l-86 -895h-4l-72 895h-260l178 -1153q2 -20 2 -34q2 -56 -73 -54h-82v-192h131q186 -2 248 51q61 51 75 199l185 1183h-242zM271 1294v223h-192v-223h192zM609 1294v223h-192v-223h192z" />
    <glyph glyph-name="OE" unicode="&#x152;" horiz-adv-x="948" 
d="M717 1249h213v209h-381q-76 29 -172 29q-135 0 -236 -58q-102 -63 -104 -208v-983q2 -142 104 -205q101 -62 236 -62q94 0 170 29h383v209h-213v498h202v208h-202v334zM428 285q0 -33 -6 -62q-12 -35 -45 -35t-41 35q-10 29 -10 62v888q0 33 10 66q8 29 41 31
q33 -2 45 -31q6 -33 6 -66v-888z" />
    <glyph glyph-name="oe" unicode="&#x153;" horiz-adv-x="1024" 
d="M381 240q0 -23 -8 -41q-13 -21 -39 -21q-25 0 -33 21q-12 18 -12 41v692q0 22 12 43q8 16 33 18q26 -2 39 -18q8 -21 8 -43v-692zM641 721v211q0 22 12 43q8 16 33 18q27 -2 39 -18q8 -21 8 -43v-211h-92zM993 909q-2 152 -80 217q-82 60 -227 60q-41 0 -84 -2
q-43 -4 -94 -31v0q-41 27 -88 31q-47 2 -90 2q-127 0 -211 -64q-88 -63 -90 -196v-676q2 -131 90 -197q84 -67 211 -67q100 0 186 34q21 -10 45 -16q23 -6 47 -10q49 -8 74 -8q307 -6 311 276v203h-260v-225q0 -23 -8 -41q-12 -21 -39 -21q-25 0 -33 21q-12 18 -12 41v305
h352v364z" />
    <glyph glyph-name="Scaron" unicode="&#x160;" 
d="M715 938v283q-2 145 -101 208q-100 58 -239 58q-135 0 -236 -58q-102 -63 -104 -208v-183q0 -61 20 -106q17 -49 45 -86q29 -35 64 -66q35 -33 72 -67q38 -31 75 -68q35 -39 64 -88q59 -98 61 -272q0 -33 -6 -62q-12 -35 -45 -35t-41 35q-10 29 -10 62v288h-289v-335
q2 -142 104 -205q101 -62 236 -62q139 0 240 62q98 63 100 205v127q0 100 -16 174q-17 71 -45 122q-27 52 -62 91q-37 36 -74 67q-37 33 -71 66q-35 30 -66 69q-61 74 -67 219q0 33 10 66q8 29 41 31q33 -2 45 -31q6 -33 6 -66v-235h289zM382 1638v0l-119 182h-172l197 -276
h184l211 276h-154z" />
    <glyph glyph-name="scaron" unicode="&#x161;" horiz-adv-x="682" 
d="M393 764h260v158q-2 133 -92 200q-88 64 -221 64q-125 0 -215 -64q-94 -67 -96 -200v-99q2 -110 59 -174q55 -63 125 -104q35 -21 68 -39q32 -21 57 -45q53 -45 55 -123v-98q0 -23 -10 -41q-12 -21 -43 -21t-39 21q-12 18 -12 41v204h-260v-194q2 -131 96 -197
q90 -67 215 -67q133 0 221 67q90 66 92 197v94q0 68 -14 119q-16 51 -41 88q-55 72 -125 113q-35 24 -65 45q-31 18 -60 41q-57 40 -59 114v68q0 22 12 43q8 16 39 18q31 -2 43 -18q10 -21 10 -43v-168zM344 1364v0l-119 182h-172l197 -276h184l211 276h-154z" />
    <glyph glyph-name="Ydieresis" unicode="&#x178;" 
d="M244 0h288v731l222 727h-260l-91 -579h-4l-92 579h-303l240 -727v-731zM311 1568v223h-192v-223h192zM649 1568v223h-192v-223h192z" />
    <glyph glyph-name="florin" unicode="&#x192;" 
d="M248 856l-66 -711q-2 -59 -20 -120q-19 -66 -92 -70q-35 0 -68 14l-29 -207q72 -24 146 -24q96 2 160 43q65 37 104 102q39 66 63 144q21 77 33 155q37 338 62 674h186v193h-174q2 65 18 141q15 76 95 80q47 0 90 -15l28 209q-61 21 -125 23q-213 -2 -292 -117
q-84 -117 -95 -321h-194v-193h170z" />
    <glyph glyph-name="circumflex" unicode="&#x2c6;" horiz-adv-x="342" 
d="M170 1442v0l174 -172h119l-197 276h-188l-201 -276h121z" />
    <glyph glyph-name="tilde" unicode="&#x2dc;" horiz-adv-x="342" 
d="M369 1511q-11 -45 -45 -55q-35 -10 -82 -4q-45 10 -93 22q-47 11 -81 13q-76 -2 -123 -62q-49 -59 -51 -131h81q17 47 48 62q30 10 71 0q41 -11 84 -23q41 -16 74 -16q86 0 143 55q53 55 56 139h-82z" />
    <glyph glyph-name="endash" unicode="&#x2013;" horiz-adv-x="1024" 
d="M1024 545v180h-1024v-180h1024z" />
    <glyph glyph-name="emdash" unicode="&#x2014;" horiz-adv-x="2048" 
d="M2048 545v180h-2048v-180h2048z" />
    <glyph glyph-name="quoteleft" unicode="&#x2018;" horiz-adv-x="342" 
d="M149 936h175l-58 522h-248z" />
    <glyph glyph-name="quoteright" unicode="&#x2019;" horiz-adv-x="342" 
d="M192 936l132 522h-248l-58 -522h174z" />
    <glyph glyph-name="quotesinglbase" unicode="&#x201a;" horiz-adv-x="342" 
d="M192 -219l132 522h-248l-58 -522h174z" />
    <glyph glyph-name="quotedblleft" unicode="&#x201c;" horiz-adv-x="682" 
d="M147 936h175l-58 522h-248zM489 936h175l-58 522h-248z" />
    <glyph glyph-name="quotedblright" unicode="&#x201d;" horiz-adv-x="682" 
d="M192 936l132 522h-248l-58 -522h174zM534 936l132 522h-248l-58 -522h174z" />
    <glyph glyph-name="quotedblbase" unicode="&#x201e;" horiz-adv-x="682" 
d="M192 -219l132 522h-248l-58 -522h174zM534 -219l132 522h-248l-58 -522h174z" />
    <glyph glyph-name="dagger" unicode="&#x2020;" horiz-adv-x="872" 
d="M41 1034v-250h266v-933h260v933h264v250h-264v424h-260v-424h-266z" />
    <glyph glyph-name="daggerdbl" unicode="&#x2021;" horiz-adv-x="872" 
d="M307 -127h260v367h264v249h-264v349h264v249h-264v371h-260v-371h-266v-249h266v-349h-266v-249h266v-367z" />
    <glyph glyph-name="bullet" unicode="&#x2022;" horiz-adv-x="1024" 
d="M870 729q-2 154 -102 256q-102 100 -256 102q-154 -2 -254 -102q-100 -102 -104 -256q2 -154 106 -252q100 -104 252 -106q154 2 256 106q100 100 102 252v0z" />
    <glyph glyph-name="ellipsis" unicode="&#x2026;" horiz-adv-x="2048" 
d="M471 0v303h-260v-303h260zM1153 0v303h-260v-303h260zM1835 0v303h-260v-303h260z" />
    <glyph glyph-name="perthousand" unicode="&#x2030;" horiz-adv-x="1554" 
d="M1264 522q0 49 40 49q41 0 41 -49v-354q0 -49 -41 -49q-40 0 -40 49v354zM1079 217q0 -217 225 -217q224 0 226 217v256q-2 217 -226 217q-225 0 -225 -217v-256zM745 522q0 49 41 49t41 -49v-354q0 -49 -41 -49t-41 49v354zM561 217q0 -217 225 -217q224 0 226 217v256
q-2 217 -226 217q-225 0 -225 -217v-256zM23 985q0 -217 225 -217q223 0 225 217v256q-2 217 -225 217q-225 0 -225 -217v-256zM158 -29h133l598 1516h-133zM207 1290q0 49 41 49t41 -49v-354q0 -49 -41 -49t-41 49v354z" />
    <glyph glyph-name="guilsinglleft" unicode="&#x2039;" horiz-adv-x="342" 
d="M315 1096v0l-288 -324v-274l288 -324v0v277l-178 184l178 184v277z" />
    <glyph glyph-name="guilsinglright" unicode="&#x203a;" horiz-adv-x="342" 
d="M27 1096v-277l178 -184l-178 -184v-277v0l288 324v274l-288 324v0z" />
    <glyph glyph-name="trademark" unicode="&#x2122;" horiz-adv-x="2048" 
d="M778 1458h-704v-188h227v-656h250v656h227v188zM1472 969l-182 489h-319v-844h221v553h4l186 -553h181l186 553h4v-553h221v844h-319l-183 -489v0z" />
    <glyph glyph-name="hyphen" horiz-adv-x="530" 
d="M442 541v188h-354v-188h354z" />
    <glyph glyph-name="fraction" horiz-adv-x="266" 
d="M-252 -29h146l651 1516h-140z" />
    <glyph glyph-name="fi" 
d="M737 0v1171h-260v-1171h260zM737 1237v221h-260v-221h260zM420 1458h-109q-125 2 -178 -43q-53 -47 -53 -168v-76h-62v-192h62v-979h260v979h80v192h-80v23q-2 37 12 55q10 17 49 17h19v192z" />
    <glyph glyph-name="fl" 
d="M737 0v1458h-260v-1458h260zM80 0h260v979h80v192h-80v23q-2 37 12 55q10 17 49 17h19v192h-109q-125 2 -178 -43q-53 -47 -53 -168v-76h-62v-192h62v-979z" />
    <glyph glyph-name="breve" horiz-adv-x="342" 
d="M-115 1540q25 -262 287 -264q264 -2 293 260h-86q-17 -70 -72 -96q-55 -29 -125 -29q-71 -2 -133 22q-61 25 -76 107h-88z" />
    <glyph glyph-name="dotaccent" horiz-adv-x="342" 
d="M266 1294v223h-192v-223h192z" />
    <glyph glyph-name="ring" horiz-adv-x="342" 
d="M-18 1493q2 -80 53 -135q24 -27 59 -43q31 -19 72 -19q82 2 139 62q53 55 55 135q-2 74 -55 133q-57 55 -143 57q-78 -2 -127 -57q-51 -59 -53 -133v0zM76 1491q0 94 86 98q45 0 76 -29q28 -28 28 -69q0 -96 -100 -101q-92 5 -90 101v0z" />
    <glyph glyph-name="ogonek" horiz-adv-x="342" 
d="M176 0q-139 -37 -207 -100q-67 -68 -67 -138q2 -81 49 -114t92 -33q125 0 240 74v86q-86 -43 -164 -45q-25 0 -45 14q-23 12 -23 51q0 70 64 113q63 43 172 92h-111z" />
    <glyph glyph-name="caron" horiz-adv-x="342" 
d="M172 1364v0l-119 182h-172l197 -276h184l211 276h-154z" />
    <glyph glyph-name="Lslash" horiz-adv-x="606" 
d="M328 209v637l94 76v213v0l-94 -74v0v397h-289v-631l-64 -51v-211v0l64 49v0v-614h545v209h-256z" />
    <glyph glyph-name="dotlessi" horiz-adv-x="342" 
d="M301 0v1171h-260v-1171h260z" />
    <glyph glyph-name="lslash" horiz-adv-x="342" 
d="M301 924v534h-260v-659l-66 -49v-224v0l66 47v0v-573h260v696l72 54v227v0l-72 -53v0z" />
    <glyph glyph-name="minus" horiz-adv-x="1139" 
d="M68 467h1003v237h-1003v-237z" />
    </font>
</defs>
</svg>
